<svg xmlns="http://www.w3.org/2000/svg" width="512" height="512" viewBox="0 0 504 504">
	<path d="M284 375c0-2 0-4 0-7 -51-3-99-5-99-5l-6-22h109c8-25 24-45 45-60l26-116c0-1 1-1 2-1h48c1 0 1 0 1 1 0 0 0 1 0 2l-27 96c4 0 8-1 12-1 12 0 24 2 35 6l30-107h17c14 0 26-11 26-25s-11-26-25-26l-364 0L100 58c-2-8-9-14-16-16L30 27c-2-1-4-1-6-1 -11 0-20 7-23 17 -2 6-1 12 2 18 3 5 8 9 14 11l41 11 82 298c-12 6-19 18-19 31 0 19 16 35 35 35 19 0 35-16 35-35 0 0 0-1 0-1h99C286 399 284 387 284 375zM233 165c0 0 1-1 1-1h73c1 0 1 0 1 1 0 0 0 1 0 2l-22 119c0 1-1 1-2 1h-30c-1 0-2-1-2-1l-22-119C233 166 233 165 233 165zM164 283c0-1-33-117-33-117 0-1 0-1 0-2 0 0 1-1 1-1h48c1 0 2 1 2 1l26 118 0 0c0 0 0 0 0 1 0 1-1 2-2 2h-41C165 287 165 284 164 283z" fill="#47a9b4"/>
	<path d="M402 283c-54 0-97 44-97 97s44 97 97 97c54 0 97-44 97-97S455 283 402 283zM456 396h-39v39c0 8-7 15-15 15s-15-7-15-15v-39h-39c-8 0-15-7-15-15s7-15 15-15h39v-39c0-8 7-15 15-15s15 7 15 15v39h39c8 0 15 7 15 15S464 396 456 396z" fill="#47a9b4"/>
</svg>
