<svg xmlns="http://www.w3.org/2000/svg">
<symbol viewBox="0 0 452 452" id="arrow-down">
    <path d="M226 355c-8 0-16-3-22-9L9 151c-12-12-12-32 0-45 12-12 32-12 45 0l172 172 172-172c12-12 32-12 45 0 12 12 12 32 0 45L248 345C242 352 234 355 226 355z"/>
</symbol>
<symbol viewBox="0 0 612 616" id="search">
    <path d="M603 550l-184-185c27-38 43-84 43-134C461 103 358 0 231 0 105 0 2 103 2 231c0 127 103 231 229 231 50 0 95-16 133-43l184 185c7 8 17 11 27 11 10 0 20-4 27-11C617 589 617 565 603 550zM356 320l-15 21L320 356c-26 19-57 29-88 29 -84 0-153-69-153-154 0-85 69-154 153-154s153 69 153 154C384 263 374 294 356 320z"/>
</symbol>
</svg>
