<svg version="1.1" xmlns="http://www.w3.org/2000/svg" xmlns:xlink="http://www.w3.org/1999/xlink" style="" width="190" height="56" viewBox="0 0 190 56">
<g style="mix-blend-mode: source-over;" transform="matrix(0.6572861438322656,0,0,0.6572861438322656,-0.0919407592086689,0.20174066971350052)">
	<g style="">
		<g id="Shopik" style="fill: #444444;">
			<path id="svg_1" d="m117.949997,39.318379q0,2.05 -0.8,3.9q-0.8,1.85 -2.18,3.26q-1.39,1.42 -3.26,2.26q-1.88,0.85 -4.03,0.85l-15.41,0q-2.1,0 -3.95,-0.8q-1.85,-0.79 -3.24,-2.18q-1.38,-1.38 -2.2,-3.26q-0.82,-1.87 -0.88,-4.03l5.14,0q0,2.16 1.49,3.65q1.49,1.49 3.64,1.49l15.41,0q2.15,0 3.64,-1.49q1.49,-1.49 1.49,-3.65q0,-2.16 -1.49,-3.64q-1.49,-1.49 -3.64,-1.49l-15.41,0q-2.05,0 -3.93,-0.8q-1.87,-0.8 -3.28,-2.18q-1.41,-1.39 -2.23,-3.26q-0.83,-1.88 -0.83,-4.03q0,-2.06 0.8,-3.9q0.8,-1.85 2.18,-3.26q1.39,-1.42 3.26,-2.26q1.88,-0.85 4.03,-0.85l15.41,0q2.05,0 3.9,0.79q1.85,0.8 3.23,2.19q1.39,1.38 2.24,3.26q0.84,1.87 0.9,4.03l-5.14,0q0,-2.16 -1.49,-3.65q-1.49,-1.49 -3.64,-1.49l-15.41,0q-2.15,0 -3.64,1.49q-1.49,1.49 -1.49,3.65q0,2.15 1.49,3.64q1.49,1.49 3.64,1.49l15.41,0q2,0 3.87,0.8q1.88,0.79 3.29,2.18q1.41,1.39 2.26,3.26q0.85,1.87 0.85,4.03zm9.75,-10.27l25.67,0l0,-15.4l5.14,0l0,35.94l-5.14,0l0,-15.4l-25.67,0l0,15.4l-5.13,0l0,-35.94l5.13,0l0,15.4zm66.24,-5.13q0,-2.16 -1.49,-3.65q-1.49,-1.49 -3.65,-1.49l-15.4,0q-2.16,0 -3.65,1.49q-1.49,1.49 -1.49,3.65l0,15.4q0,2.16 1.49,3.65q1.49,1.49 3.65,1.49l15.4,0q2.16,0 3.65,-1.49q1.49,-1.49 1.49,-3.65l0,-15.4m5.13,15.4q0,2.11 -0.82,3.98q-0.82,1.87 -2.21,3.26q-1.39,1.39 -3.26,2.21q-1.87,0.82 -3.98,0.82l-15.4,0q-2.16,0 -4.03,-0.8q-1.88,-0.79 -3.26,-2.18q-1.39,-1.38 -2.19,-3.26q-0.79,-1.87 -0.79,-4.03l0,-15.4q0,-2.11 0.82,-3.98q0.82,-1.88 2.21,-3.26q1.38,-1.39 3.26,-2.21q1.87,-0.82 3.98,-0.82l15.4,0q2.05,0 3.9,0.82q1.85,0.82 3.26,2.21q1.42,1.38 2.26,3.26q0.85,1.87 0.85,3.98l0,15.4zm35.43,-15.4q0,-2.16 -1.49,-3.65q-1.49,-1.49 -3.65,-1.49l-20.53,0l0,15.41l20.53,0q2.16,0 3.65,-1.49q1.49,-1.49 1.49,-3.65l0,-5.13m5.13,5.13q0,2.06 -0.79,3.9q-0.8,1.85 -2.19,3.26q-1.38,1.42 -3.26,2.26q-1.87,0.85 -4.03,0.85l-20.53,0l0,10.27l-5.14,0l0,-35.94l25.67,0q2.06,0 3.91,0.79q1.84,0.8 3.23,2.19q1.39,1.38 2.23,3.26q0.85,1.87 0.9,4.03l0,5.13zm4.11,-15.4l5.13,0l0,35.94l-5.13,0l0,-35.94zm28.24,17.97l17.97,17.97l-7.24,0l-15.4,-15.4l-8.17,0l0,15.4l-5.13,0l0,-35.94l5.13,0l0,15.4l8.17,0l15.4,-15.4l7.24,0l-17.97,17.97z" style="fill: rgb(68, 68, 68);"/>
		</g>
		<g id="Online Store" style="fill: #aaaaaa;">
			<path id="svg_2" d="m112.309998,60.348385c-3.28,0 -5.39,2.24 -5.39,5.8c0,3.48 2.09,5.72 5.28,5.72c3.18,0 5.23,-2.24 5.23,-5.78c0,-3.46 -2.03,-5.74 -5.12,-5.74zm-0.14,1.1c2.32,0 3.79,1.79 3.79,4.67c0,2.79 -1.52,4.63 -3.76,4.63c-2.31,0 -3.83,-1.84 -3.83,-4.66c0,-2.77 1.54,-4.64 3.8,-4.64zm15.24,3.5c0,-0.43 -0.03,-1.02 -0.06,-1.4l-1.26,0c0.06,0.68 0.08,1.56 0.08,2.43l0,5.71l1.31,0l0,-3.98c0,-2.26 1.02,-3.25 2.43,-3.25c1.63,0 1.94,1.21 1.94,3.07l0,4.16l1.31,0l0,-4.67c0,-2.13 -0.69,-3.65 -2.95,-3.65c-1.23,0 -2.17,0.61 -2.76,1.58l-0.04,0zm16.16,-5.36l-1.31,0l0,12.1l1.31,0l0,-12.1zm10.61,0.79l-1.47,0l0,1.5l1.47,0l0,-1.5zm-0.08,3.17l-1.31,0l0,8.14l1.31,0l0,-8.14zm10.47,1.4c0,-0.43 -0.04,-1.02 -0.07,-1.4l-1.26,0c0.06,0.68 0.08,1.56 0.08,2.43l0,5.71l1.31,0l0,-3.98c0,-2.26 1.02,-3.25 2.43,-3.25c1.63,0 1.94,1.21 1.94,3.07l0,4.16l1.31,0l0,-4.67c0,-2.13 -0.69,-3.65 -2.94,-3.65c-1.24,0 -2.18,0.61 -2.77,1.58l-0.03,0zm21.39,2.95c0.01,-0.18 0.03,-0.42 0.03,-0.56c0,-2.67 -1.3,-3.97 -3.39,-3.97c-2.26,0 -3.79,1.65 -3.79,4.19c0,2.67 1.5,4.31 4.17,4.31c0.91,0 1.7,-0.16 2.42,-0.48l-0.05,-1.2c-0.72,0.38 -1.42,0.59 -2.3,0.59c-1.75,0 -2.88,-1.09 -2.92,-2.88l5.83,0zm-5.79,-1.01c0.12,-1.62 1.1,-2.51 2.4,-2.51c1.29,0 2.14,0.81 2.14,2.51l-4.54,0zm23.85,4.58c0.69,0.27 1.38,0.4 2.21,0.4c1.6,0 2.88,-0.8 2.88,-2.44c0,-1.08 -0.61,-1.79 -2.1,-2.38c-1.1,-0.45 -1.61,-0.77 -1.61,-1.47c0,-0.77 0.67,-1.17 1.49,-1.17c0.59,0 1.15,0.11 1.74,0.4l0.11,-1.1c-0.51,-0.21 -1.18,-0.34 -1.87,-0.34c-1.58,0 -2.75,0.85 -2.75,2.3c0,1.12 0.64,1.67 1.92,2.24c1.31,0.6 1.76,0.92 1.76,1.64c0,0.83 -0.75,1.26 -1.65,1.26c-0.7,0 -1.38,-0.18 -2.02,-0.53l-0.11,1.19zm15.43,-10.2l-1.28,0.44l0,1.88l-1.81,0l0,1.04l1.81,0l0,4.34c0,1.68 0.49,2.82 2.41,2.82c0.42,0 0.83,-0.08 1.19,-0.2l-0.05,-1.04c-0.29,0.13 -0.56,0.2 -0.87,0.2c-1.12,0 -1.4,-0.79 -1.4,-2.08l0,-4.04l2.17,0l0,-1.04l-2.17,0l0,-2.32zm14.04,2.1c-2.43,0 -4.11,1.74 -4.11,4.29c0,2.48 1.7,4.21 4.05,4.21c2.38,0 4.05,-1.72 4.05,-4.21c0,-2.53 -1.67,-4.29 -3.99,-4.29zm-0.09,1.07c1.61,0 2.7,1.28 2.7,3.2c0,1.91 -1.09,3.15 -2.67,3.15c-1.6,0 -2.67,-1.23 -2.67,-3.13c0,-1.92 1.07,-3.22 2.64,-3.22zm13.95,0.58c0,-0.42 -0.02,-1.04 -0.06,-1.47l-1.28,0c0.06,0.68 0.08,1.56 0.08,2.43l0,5.71l1.31,0l0,-3.94c0,-1.95 0.85,-3.18 2.24,-3.18c0.3,0 0.54,0.03 0.75,0.1l0,-1.2c-0.21,-0.07 -0.45,-0.1 -0.74,-0.1c-1.04,0 -1.87,0.69 -2.27,1.65l-0.03,0zm17.65,2.88c0.01,-0.18 0.03,-0.42 0.03,-0.56c0,-2.67 -1.3,-3.97 -3.39,-3.97c-2.26,0 -3.79,1.65 -3.79,4.19c0,2.67 1.5,4.31 4.17,4.31c0.91,0 1.7,-0.16 2.42,-0.48l-0.05,-1.2c-0.72,0.38 -1.42,0.59 -2.3,0.59c-1.75,0 -2.88,-1.09 -2.92,-2.88l5.83,0zm-5.79,-1.01c0.12,-1.62 1.1,-2.51 2.4,-2.51c1.29,0 2.14,0.81 2.14,2.51l-4.54,0z" style="fill: rgb(170, 170, 170);"/>
		</g>
		<g id="Bag" transform="matrix(1.0689575672149658,0,0,1.0689575672149658,-18.516605377197266,-9.620450973510742)" style="fill: #444444; stroke: null;">
			<path id="svg_5" d="m63.874743,32.816241c-0.757378,0.112815 -1.510673,0.211653 -2.271113,0.287528l-0.002041,-0.002995c-1.325922,17.501292 -1.543336,36.139718 -0.516487,53.684938c0.745129,-0.215646 1.489238,-0.449263 2.231305,-0.687872c-1.031953,-17.425416 -0.793103,-35.948033 0.558337,-53.2816z" style="fill: rgb(68, 68, 68); stroke: #444444; stroke-width: 0.2;"/>
			<path id="svg_6" d="m61.000381,31.40256l0.447078,1.262928l0.23885,-1.175072c-0.22558,-0.025957 -0.457285,-0.059902 -0.685927,-0.087856z" style="fill: rgb(68, 68, 68); stroke: #444444; stroke-width: 0.2;"/>
			<path id="svg_7" d="m80.045068,78.202792l-0.757378,-0.012979c-4.846402,3.268638 -10.314426,5.870371 -15.970263,7.706359c-0.742067,0.23761 -1.072782,0.472225 -1.817911,0.687872c0.04185,0.733796 0.075534,1.683239 0.121466,2.415038c0.747171,-0.206661 1.090134,-0.187692 1.824036,-0.453257c5.416987,-1.961782 12.156835,-5.142564 17.404382,-8.72968l-0.804331,-1.613354z" style="fill: rgb(68, 68, 68); stroke: #444444; stroke-width: 0.2;"/>
			<path id="svg_8" d="m23.317256,77.202433c-0.187813,-0.071882 -3.721563,-1.331815 -3.907335,-1.403697l-1.242222,1.916856c13.350062,4.954872 29.790879,8.901399 43.889133,11.211609l-0.345005,-2.265284c0.368482,-0.091849 -26.906311,-5.352221 -39.416316,-9.823885" style="fill: rgb(68, 68, 68); stroke: #444444; stroke-width: 0.2;"/>
			<path id="svg_9" d="m21.064516,25.142828c0.017352,-0.18869 0.031642,-0.378379 0.047974,-0.564075c-0.568544,0.002995 -1.136067,0.017971 -1.699507,0.010982l-0.071451,-0.41432l0,0l-0.096969,0.409329c0.598145,0.193682 1.214663,0.369394 1.819953,0.558085z" style="fill: rgb(68, 68, 68); stroke: #444444; stroke-width: 0.2;"/>
			<path id="svg_10" d="m21.064516,25.142828c-0.591,-0.184697 -1.193228,-1.127151 -1.779124,-1.349786l0.016332,-1.252945c-1.514756,16.884304 -2.409932,36.459194 -1.284072,53.457311c0.033684,0.499181 0.053078,1.002356 0.089824,1.496545l2.4773,-0.023961c-0.01429,-0.207659 -0.022456,-0.422307 -0.038788,-0.631963c-1.212621,-16.904271 -0.974792,-34.843844 0.518528,-51.695202z" style="fill: rgb(68, 68, 68); stroke: #444444; stroke-width: 0.2;"/>
			<path id="svg_11" d="m19.135346,22.641931c2.094528,0.671898 4.637154,1.107184 6.782718,1.722175c4.352371,-0.333453 8.904805,-1.057266 13.096922,-2.157461c0.378689,-0.888542 0.827808,-1.789065 1.36573,-2.652649c-6.848044,2.033664 -13.588912,3.186773 -20.715614,3.062976" style="fill: rgb(68, 68, 68); stroke: #444444; stroke-width: 0.2;"/>
			<path id="svg_12" d="m19.341532,24.174417l0.071451,0.41432c0.56344,0.006989 1.130963,-0.007987 1.699507,-0.010982c0.009187,-0.11581 0.019394,-0.23162 0.02756,-0.346432l-1.798517,-0.056907z" style="fill: rgb(68, 68, 68); stroke: #444444; stroke-width: 0.2;"/>
			<path id="svg_13" d="m55.436409,18.638498c-0.351129,0.922487 -0.568544,1.735154 -0.692052,2.314204c0.494031,0.105826 0.991124,0.220638 1.489238,0.319476c-0.198021,-0.90851 -0.456264,-1.804041 -0.797186,-2.63368z" style="fill: rgb(68, 68, 68); stroke: #444444; stroke-width: 0.2;"/>
			<path id="svg_14" d="m63.635893,11.345461c1.668885,-0.275548 2.954999,0.124795 3.943061,1.220997c2.384414,2.647657 2.411973,8.458126 2.198642,10.927076c0.721653,0.084861 1.439222,0.162733 2.160875,0.238609c0.273554,-2.958148 0.197,-9.33369 -2.725336,-12.577369c-1.481072,-1.645301 -3.534771,-2.307215 -5.938578,-1.914859c-4.906625,0.80468 -7.64523,4.113253 -9.146717,7.097358c0.530777,0.667904 0.960502,1.449622 1.307549,2.301225c1.065637,-2.783434 3.371455,-6.503332 8.200505,-7.293037z" style="fill: rgb(68, 68, 68); stroke: #444444; stroke-width: 0.2;"/>
			<path id="svg_15" d="m54.138047,21.730426c-0.201083,-0.716824 -0.70328,-2.357133 -1.014601,-2.971126c-0.227622,0.671898 -0.386855,1.991733 -0.498114,2.454973c0.420539,0.09784 1.090134,0.423306 1.512714,0.516153z" style="fill: rgb(68, 68, 68); stroke: #444444; stroke-width: 0.2;"/>
			<path id="svg_16" d="m81.170928,38.09059c0.083699,-4.464676 0.189855,-8.88243 0.317445,-13.258252l-0.257223,-0.35342l-0.332756,-0.10982c-2.621222,-0.131784 -6.306039,-0.354419 -8.958903,-0.635957c-0.721653,-0.075876 -1.439222,-0.153748 -2.160875,-0.238609c-4.529977,-0.546104 -9.0671,-1.290883 -13.545021,-2.220358c0.165357,0.769737 0.282741,1.552453 0.368482,2.318197c6.745971,1.361766 13.620554,2.31021 20.376733,2.796413c0.740026,0.052913 1.481072,0.113813 2.219056,0.153748c0.106155,0.006989 0.251098,0.595024 -0.033684,0.754762c-0.089824,3.446347 -0.165357,7.324984 -0.231705,10.820251c-0.083699,4.443711 -0.141881,8.917372 -0.305197,13.3511c-0.349088,8.977274 -0.141881,18.582518 0.242933,27.320185l2.064927,0.852601c-0.40829,-8.712708 -0.420539,-19.122632 -0.075534,-28.096911c0.166378,-4.497622 0.222518,-8.99225 0.311321,-13.453931z" style="fill: rgb(68, 68, 68); stroke: #444444; stroke-width: 0.2;"/>
			<path id="svg_17" d="m80.152244,27.217425c0.008166,-0.385368 -0.347046,-1.100195 -0.334798,-1.483566c-0.737984,-0.040933 -2.099631,0.706841 -2.838636,0.653927c-4.938267,1.666267 -14.622906,5.044725 -14.633113,5.217442c-7.069541,-0.808673 -15.6273,-2.241323 -22.75196,-3.815741c-0.711445,-0.15874 -1.419828,-0.324468 -2.132294,-0.490196c-3.824657,-0.884549 -7.613588,-1.862944 -11.337192,-2.934187c-2.143522,-0.613993 -4.68819,-1.050277 -6.782718,-1.722175c0,0 -1.118715,3.082943 1.721963,2.500898c12.904005,3.990454 27.223756,6.996523 40.616689,8.524018l0.031642,-0.096841c0.727777,-0.084861 1.481072,-0.261571 2.160875,-0.513158c5.75791,-2.146479 9.539696,-3.069964 16.279543,-5.84042z" style="fill: rgb(68, 68, 68); stroke: #444444; stroke-width: 0.2;"/>
			<path id="svg_18" d="m42.416041,20.222899c3.570496,1.028313 8.239292,2.083582 11.950648,2.887264c-0.062264,-0.45725 -0.137798,-0.911505 -0.231705,-1.360768c0,0 -1.66072,-0.622978 -1.510673,-1.256938c-2.861092,-0.657921 -5.681355,-1.394712 -8.449561,-2.1944c-0.235787,0.21964 -0.458306,0.453257 -0.668575,0.691865l-0.469533,0.433289l-0.620601,0.799688z" style="fill: rgb(68, 68, 68); stroke: #444444; stroke-width: 0.2;"/>
			<path id="svg_19" d="m56.602077,23.591373c-0.085741,-0.766742 -0.203124,-1.549458 -0.368482,-2.318197c-0.498114,-0.099836 -0.995207,-0.21365 -1.489238,-0.319476c0.123508,-0.57905 0.340922,-1.392715 0.692052,-2.314204c-0.347046,-0.851603 -0.777792,-1.633321 -1.307549,-2.301225c-0.093907,-0.117807 -0.185772,-0.23162 -0.284782,-0.344435c-1.472906,-1.631324 -3.490879,-2.291242 -5.830381,-1.90787c-3.583765,0.589034 -6.003904,2.85931 -7.632981,5.468031c-0.537922,0.863583 -0.987041,1.765105 -1.36573,2.652649c-0.812497,1.905874 -1.288155,3.761829 -1.552523,5.092646c0.712466,0.165728 1.420849,0.331456 2.132294,0.490196c0.320508,-1.602372 0.980917,-4.103269 2.233346,-6.385526c0.401145,-0.728805 0.857409,-1.431652 1.385124,-2.075595c0.094927,-0.113813 0.193938,-0.227627 0.292948,-0.337446c0,0 0.497093,-0.741783 0.668575,-0.691865c1.127901,-1.053272 2.506901,-1.829 4.1962,-2.10954c1.6056,-0.258576 2.854968,0.135777 3.82976,1.21301c0.353171,0.391358 0.658368,0.851603 0.920694,1.358771c0.311321,0.612994 0.566502,1.292879 0.765544,2.007707c0.093907,0.321473 0.173523,0.648936 0.247015,0.98139c0.093907,0.449263 0.16944,0.903518 0.231705,1.360768c0.452181,3.239686 0.163316,7.197194 -0.004083,7.732316l2.089424,0.375384c0.207207,-0.664909 0.518528,-4.266002 0.151067,-7.627488z" style="fill: rgb(68, 68, 68); stroke: #444444; stroke-width: 0.2;"/>
		</g>
	</g>
</g>
</svg>